<svg width="39" height="39" viewBox="0 0 39 39" fill="none" xmlns="http://www.w3.org/2000/svg">
<path d="M24.7851 12.3924H23.1327V11.5663C23.1327 11.3472 23.0457 11.137 22.8907 10.9821C22.7358 10.8272 22.5257 10.7401 22.3066 10.7401C22.0874 10.7401 21.8773 10.8272 21.7224 10.9821C21.5674 11.137 21.4804 11.3472 21.4804 11.5663V12.3924H16.5234V11.5663C16.5234 11.3472 16.4364 11.137 16.2814 10.9821C16.1265 10.8272 15.9163 10.7401 15.6972 10.7401C15.4781 10.7401 15.268 10.8272 15.113 10.9821C14.9581 11.137 14.8711 11.3472 14.8711 11.5663V12.3924H13.2187C12.5614 12.3924 11.931 12.6536 11.4662 13.1184C11.0014 13.5832 10.7402 14.2136 10.7402 14.8709V24.7849C10.7402 25.4423 11.0014 26.0727 11.4662 26.5375C11.931 27.0023 12.5614 27.2634 13.2187 27.2634H24.7851C25.4424 27.2634 26.0728 27.0023 26.5376 26.5375C27.0024 26.0727 27.2635 25.4423 27.2635 24.7849V14.8709C27.2635 14.2136 27.0024 13.5832 26.5376 13.1184C26.0728 12.6536 25.4424 12.3924 24.7851 12.3924ZM25.6112 24.7849C25.6112 25.004 25.5242 25.2142 25.3692 25.3691C25.2143 25.5241 25.0042 25.6111 24.7851 25.6111H13.2187C12.9996 25.6111 12.7895 25.5241 12.6345 25.3691C12.4796 25.2142 12.3926 25.004 12.3926 24.7849V19.0018H25.6112V24.7849ZM25.6112 17.3494H12.3926V14.8709C12.3926 14.6518 12.4796 14.4417 12.6345 14.2868C12.7895 14.1318 12.9996 14.0448 13.2187 14.0448H14.8711V14.8709C14.8711 15.0901 14.9581 15.3002 15.113 15.4551C15.268 15.6101 15.4781 15.6971 15.6972 15.6971C15.9163 15.6971 16.1265 15.6101 16.2814 15.4551C16.4364 15.3002 16.5234 15.0901 16.5234 14.8709V14.0448H21.4804V14.8709C21.4804 15.0901 21.5674 15.3002 21.7224 15.4551C21.8773 15.6101 22.0874 15.6971 22.3066 15.6971C22.5257 15.6971 22.7358 15.6101 22.8907 15.4551C23.0457 15.3002 23.1327 15.0901 23.1327 14.8709V14.0448H24.7851C25.0042 14.0448 25.2143 14.1318 25.3692 14.2868C25.5242 14.4417 25.6112 14.6518 25.6112 14.8709V17.3494Z" fill="#E61B1E"/>
<circle opacity="0.2" cx="19.0105" cy="19.0104" r="18.99" transform="rotate(0.0617057 19.0105 19.0104)" fill="#E61B1E"/>
</svg>
