<svg width="25" height="17" viewBox="0 0 25 17" fill="none" xmlns="http://www.w3.org/2000/svg">
<path d="M16.069 8.55911C16.069 9.57383 15.6659 10.547 14.9484 11.2645C14.2309 11.982 13.2577 12.3851 12.243 12.3851C11.2283 12.3851 10.2551 11.982 9.53761 11.2645C8.82009 10.547 8.41699 9.57383 8.41699 8.55911C8.41699 7.54438 8.82009 6.57122 9.53761 5.85371C10.2551 5.13619 11.2283 4.73309 12.243 4.73309C13.2577 4.73309 14.2309 5.13619 14.9484 5.85371C15.6659 6.57122 16.069 7.54438 16.069 8.55911V8.55911Z" fill="#4E47E5"/>
<path d="M0 8.55914C0 8.55914 4.59122 0.141907 12.2432 0.141907C19.8953 0.141907 24.4865 8.55914 24.4865 8.55914C24.4865 8.55914 19.8953 16.9764 12.2432 16.9764C4.59122 16.9764 0 8.55914 0 8.55914ZM12.2432 13.9156C13.6639 13.9156 15.0263 13.3512 16.0308 12.3467C17.0353 11.3422 17.5997 9.97975 17.5997 8.55914C17.5997 7.13853 17.0353 5.7761 16.0308 4.77158C15.0263 3.76705 13.6639 3.20272 12.2432 3.20272C10.8226 3.20272 9.46021 3.76705 8.45568 4.77158C7.45116 5.7761 6.88682 7.13853 6.88682 8.55914C6.88682 9.97975 7.45116 11.3422 8.45568 12.3467C9.46021 13.3512 10.8226 13.9156 12.2432 13.9156V13.9156Z" fill="#4E47E5"/>
</svg>
